Coordinates
version=1
nRows=5
nColumns=40
inDegrees=yes

Units are S.I. units (second, meters, Newtons, ...)
Angles are in degrees.

endheader
time	pelvis_tilt	pelvis_list	pelvis_rotation	pelvis_tx	pelvis_ty	pelvis_tz	hip_flexion_r	hip_adduction_r	hip_rotation_r	knee_angle_r	knee_angle_r_beta	ankle_angle_r	subtalar_angle_r	mtp_angle_r	hip_flexion_l	hip_adduction_l	hip_rotation_l	knee_angle_l	knee_angle_l_beta	ankle_angle_l	subtalar_angle_l	mtp_angle_l	lumbar_extension	lumbar_bending	lumbar_rotation	arm_flex_r	arm_add_r	arm_rot_r	elbow_flex_r	pro_sup_r	wrist_flex_r	wrist_dev_r	arm_flex_l	arm_add_l	arm_rot_l	elbow_flex_l	pro_sup_l	wrist_flex_l	wrist_dev_l
     33.96000000	     -5.37349095	     -4.12729748	      0.49850332	      0.91359297	      0.90969206	      0.42152672	     15.05934104	     -6.63846996	     -6.05381713	     54.73988440	     54.73988440	      0.75370394	    -15.55591715	    -20.29977800	     24.63465729	     -1.27336730	     -0.12193022	     35.45098997	     35.45098997	     19.72894659	    -18.45417924	     12.84768462	    -10.85901444	      6.27213794	      3.82335731	     20.91530195	    -14.96592208	    -20.92261963	     24.43562363	     46.40830756	      0.00000000	      0.00000000	     16.44109499	    -16.55895816	     15.16282917	     46.85755757	     45.92832815	      0.00000000	      0.00000000
     33.98050000	     -5.19987835	     -3.87584708	      0.11559184	      0.91235214	      0.90965021	      0.41912929	     17.45882334	     -7.10909682	     -5.70291050	     58.43730314	     58.43730314	     -1.23936375	    -17.59452462	    -18.92360768	     23.98046693	     -0.99388374	     -0.64073764	     35.38191596	     35.38191596	     20.13013564	    -18.34872875	     12.67211619	    -11.05205833	      6.25288915	      2.92171239	     17.84787183	    -14.14032602	    -20.94552739	     23.29342782	     46.43320951	      0.00000000	      0.00000000	     18.04098658	    -17.42746392	     14.63793800	     47.63050953	     46.00192023	      0.00000000	      0.00000000
     34.00100000	     -5.20683308	     -3.86606338	     -0.47389465	      0.91088869	      0.90960525	      0.41726918	     20.37919503	     -6.78570890	     -4.71994323	     62.46881253	     62.46881253	     -0.00122636	    -17.93261098	     -7.63885919	     23.45616764	     -1.06995111	     -1.30110452	     35.19348537	     35.19348537	     20.37322064	    -18.25027967	     12.03181501	    -11.18133249	      6.49934677	      3.08126383	     13.85328729	    -13.95937994	    -20.64090326	     22.97112773	     46.41416502	      0.00000000	      0.00000000	     19.53277545	    -17.69319230	     13.47214841	     49.81001773	     46.17205058	      0.00000000	      0.00000000
     34.02150000	     -5.17161624	     -3.70453401	     -0.95626533	      0.90949634	      0.90993032	      0.41527197	     22.90717223	     -6.79652426	     -4.15916024	     65.54227656	     65.54227656	      0.75764945	    -18.20042514	      0.15206223	     22.77536166	     -0.93054218	     -1.91313819	     34.79119609	     34.79119609	     20.44519461	    -18.13690371	     11.28034203	    -11.28422631	      6.60559190	      2.63586201	     10.18131070	    -13.51835613	    -19.66796934	     22.64932758	     46.35901358	      0.00000000	      0.00000000	     21.21135248	    -18.19477269	     12.36584407	     50.74192816	     46.33443392	      0.00000000	      0.00000000
     34.04200000	     -5.10884917	     -3.55917834	     -1.49081216	      0.90816232	      0.91083064	      0.41354336	     25.07225959	     -6.72106491	     -3.65550022	     67.61894923	     67.61894923	      1.24544702	    -18.56005466	      5.34575803	     21.91507789	     -0.82562177	     -2.58742431	     34.12229334	     34.12229334	     20.46573762	    -17.97174382	     10.62625153	    -11.45203390	      6.72945975	      2.37933114	      6.61997245	    -13.19416831	    -18.94498336	     22.19948075	     46.32610205	      0.00000000	      0.00000000	     22.87152711	    -18.63563920	     11.27841140	     51.86526285	     46.48269239	      0.00000000	      0.00000000
